# xmcd CD database file
# Copyright (C) 1997 Ti Kan
# 
# Track frame offsets:
#     207
#     15752
#     30995
#     51265
#     66227
#     81472
#     94702
#     108430
#     123525
#     138237
#     155147
#     171385
#     185122
# 
# Disc length: 2663 seconds
# 
# Revision: 2
# Processed by: cddbd v1.4PL0 Copyright (c) Steve Scherf et al.
# Submitted via: Gronk 1.4
# 
DISCID=b00a650d
DTITLE=Pat Alger - Seeds
DYEAR=1900
DGENRE=country
TTITLE0=For Everyone With A Broken Heart
TTITLE1=For Lack Of A Better Word
TTITLE2=Like I Used To Do
TTITLE3=Seeds
TTITLE4=The Thunder Rolls
TTITLE5=Your Voice
TTITLE6=Never Needs A Reason To Rain
TTITLE7=Be Ready To Sail
TTITLE8=Until My Love Moves You
TTITLE9=A Few Good Things Remain
TTITLE10=You'll Come Back To Me
TTITLE11=Heart And Soul
TTITLE12=Unanswered Prayers
EXTD=
EXTT0=
EXTT1=
EXTT2=
EXTT3=
EXTT4=
EXTT5=
EXTT6=
EXTT7=
EXTT8=
EXTT9=
EXTT10=
EXTT11=
EXTT12=
PLAYORDER=
